<svg data-bx-workspace="master" xmlns="http://www.w3.org/2000/svg" viewBox="0 0 500 500">
    <path d="M 191.304 446.939 C 131.277 414.345 106.562 361.143 103.489 307.723 L 164.064 307.723 C 172.054 359.722 209.928 399.114 255.426 399.114 C 300.937 399.114 338.783 359.722 346.775 307.723 L 393.461 307.723 C 393.291 326.418 390.506 344.863 383.876 362.545 C 356.477 435.713 286.405 498.603 191.304 446.939 Z"></path>
    <path d="M 390.506 268.922 L 347.101 268.922 C 339.842 215.857 301.564 175.367 255.426 175.367 C 209.286 175.367 171.022 215.857 163.776 268.922 L 104.888 268.922 C 107.15 251.105 111.545 233.828 117.508 217.868 C 139.374 159.51 194.143 132.629 241.381 109.433 C 277.238 91.837 308.77 76.35 318.303 50.856 C 335.003 6.327 370.443 24.112 352.477 72.056 C 342.967 97.414 354.647 135.672 367.907 179.237 C 376.564 207.589 385.877 238.171 390.506 268.922 Z"></path>
    <path d="M 316.107 287.249 C 316.107 327.62 288.931 360.315 255.414 360.315 C 221.895 360.315 194.718 327.62 194.718 287.249 C 194.718 246.894 221.895 214.165 255.414 214.165 C 288.931 214.165 316.107 246.894 316.107 287.249 Z"></path>
    <path d="M 5.55 268.956 L 68.518 268.956 C 69.003 245.949 72.338 220.877 81.584 196.211 C 106.744 129.028 165.607 103.365 214.532 82.047 C 241.276 70.399 265.038 60.021 278.73 44.906 C 299.784 27.069 312.405 -22.379 266.241 13.765 C 251.005 25.667 222.614 33.461 189.971 42.405 C 123.786 60.544 40.114 83.467 13.121 155.52 C 0.41 189.433 -2.794 230.918 5.55 268.956 Z"></path>
    <path d="M 73.801 337.611 C 72.612 329.158 71.186 319.033 70.101 307.723 L 18.902 307.723 C 30.451 331.119 47.752 351.068 71.487 363.949 C 78.026 367.501 76.521 356.866 73.801 337.611 Z"></path>
    <path d="M 483.005 268.956 L 425.096 268.956 C 419.695 238.965 410.226 210.058 401.53 183.599 C 391.108 151.749 381.81 123.449 382.188 101.067 C 379.337 70.282 401.844 40.037 409.207 90.652 C 411.39 105.802 423.173 130.669 437.532 160.98 C 452.558 192.661 470.385 230.293 483.005 268.956 Z"></path>
    <path d="M 429.424 307.723 C 430.235 331.474 427.345 355.497 418.466 379.165 C 397.817 434.328 356.046 460.92 333.33 475.375 C 320.606 483.506 313.843 487.801 320.107 491.198 C 368.534 517.503 464.775 477.403 490.707 408.191 C 502.137 377.625 501.117 342.919 493.598 307.723 L 429.424 307.723 Z"></path>
</svg>
