<?xml version="1.0" encoding="utf-8"?>
<!-- Generator: Adobe Illustrator 27.4.0, SVG Export Plug-In . SVG Version: 6.00 Build 0)  -->
<svg version="1.1" id="Calque_1" xmlns="http://www.w3.org/2000/svg" xmlns:xlink="http://www.w3.org/1999/xlink" x="0px" y="0px"
	 viewBox="0 0 1208 500.2" style="enable-background:new 0 0 1208 500.2;" xml:space="preserve">
<g>
	<path d="M190.4,447.9c-60-32.6-84.7-85.8-87.8-139.2h60.6c8,52,45.9,91.4,91.4,91.4s83.4-39.4,91.3-91.4h46.7
		c-0.2,18.7-3,37.1-9.6,54.8C355.5,436.6,285.5,499.5,190.4,447.9z"/>
	<path d="M389.6,269.9h-43.4c-7.3-53.1-45.5-93.6-91.7-93.6c-46.1,0-84.4,40.5-91.6,93.6H104c2.3-17.8,6.7-35.1,12.6-51.1
		c21.9-58.4,76.6-85.2,123.9-108.4c35.8-17.6,67.3-33.1,76.9-58.6c16.7-44.5,52.1-26.7,34.2,21.2c-9.5,25.4,2.2,63.6,15.4,107.2
		C375.6,208.5,384.9,239.1,389.6,269.9z"/>
	<path d="M315.2,288.2c0,40.4-27.2,73.1-60.7,73.1s-60.7-32.7-60.7-73.1s27.2-73.1,60.7-73.1C288,215.1,315.2,247.8,315.2,288.2z"/>
	<path d="M4.6,269.9h63c0.5-23,3.8-48.1,13.1-72.7c25.2-67.2,84-92.8,132.9-114.2c26.7-11.6,50.5-22,64.2-37.1
		c21.1-17.8,33.7-67.3-12.5-31.1c-15.2,11.9-43.6,19.7-76.3,28.6c-66.1,18.1-149.8,41-176.8,113.1C-0.5,190.4-3.7,231.8,4.6,269.9z"
		/>
	<path d="M72.9,338.5c-1.2-8.5-2.6-18.6-3.7-29.9H18c11.5,23.4,28.8,43.3,52.6,56.2C77.1,368.4,75.6,357.8,72.9,338.5z"/>
	<path d="M482.1,269.9h-57.9c-5.4-30-14.9-58.9-23.6-85.4c-10.4-31.9-19.7-60.2-19.3-82.5c-2.9-30.8,19.7-61,27-10.4
		c2.2,15.2,14,40,28.3,70.3C451.6,193.6,469.5,231.2,482.1,269.9z"/>
	<path d="M428.5,308.7c0.8,23.8-2.1,47.8-11,71.4c-20.6,55.2-62.4,81.8-85.1,96.2c-12.7,8.1-19.5,12.4-13.2,15.8
		c48.4,26.3,144.7-13.8,170.6-83c11.4-30.6,10.4-65.3,2.9-100.5h-64.2V308.7L428.5,308.7z"/>
</g>
<g>
	<path d="M556.6,500.3V4h160.8c60.9,0,100.6,2.5,119.1,7.4c28.4,7.4,52.2,23.6,71.4,48.6c19.2,24.9,28.8,57.2,28.8,96.7
		c0,30.5-5.5,56.1-16.6,76.9C909,254.3,895,270.6,878,282.5c-17,11.8-34.4,19.7-52,23.5c-23.9,4.7-58.6,7.1-103.9,7.1h-65.3v187.2
		H556.6z M656.8,88v140.8h54.8c39.5,0,65.9-2.6,79.2-7.8c13.3-5.2,23.7-13.3,31.3-24.4c7.6-11.1,11.3-23.9,11.3-38.6
		c0-18.1-5.3-33-15.9-44.7c-10.6-11.7-24-19.1-40.3-22c-12-2.3-36-3.4-72.1-3.4H656.8z"/>
	<path d="M1206.6,500.3h-95.1V141.8c-34.8,32.5-75.7,56.5-122.9,72.1v-86.3c24.8-8.1,51.8-23.5,80.9-46.2s49.1-49.1,59.9-79.4h77.2
		V500.3z"/>
</g>
</svg>
