<svg xmlns="http://www.w3.org/2000/svg" viewBox="0 0 81.91 81.33"><path d="M57.72,23.7l-1.17.13-.48-1.08a.47.47,0,0,0,0-.1C54,17.88,51.85,13.14,49.74,8.39,48.53,5.63,47.32,2.88,46,0c-.31.45-.55.77-.77,1.1Q36.32,14.56,27.39,28h0l-.6.9-.79.24L0,37l3.13-.49q13.25-2.12,26.48-4.22h0l.85-.13.54-.9q6.66-11.3,13.35-22.56h0c.11-.19.22-.39.35-.58l.36-.6,7.78,20.39.28.77.68-.08,9.22-1.09,1-.11,1.89-.23,4.68-.55L55.27,45l-.57.69.11.91v0q1.08,8.63,2.12,17.24c.27,2.22.52,4.45.8,6.81l-1.18-.42c-6.64-2.55-13.29-5.08-19.92-7.65h-.05l-1-.39-.92.39L11.31,72.66a1.89,1.89,0,0,1-.5.23l-.51.21,3.76-14.74.24-.92-.44.85C10,65.9,6,73.51,2,81.33c.61-.22,1-.34,1.35-.5q15.18-6.24,30.37-12.51h0l1-.39.79.29h0q11.61,4.29,23.25,8.54c1.44.52,2.89,1,4.44,1.6,0-.53,0-.89-.08-1.25-.8-7-1.59-14-2.41-21-.23-2-.44-3.94-.68-5.9,0,0,0-.06,0-.1l-.15-1.32.86-1.07,0-.11Q70.94,34.93,81,22.2l.06-.07.39-.49.47-.6Z"/></svg>